<svg xmlns="http://www.w3.org/2000/svg" xmlns:xlink="http://www.w3.org/1999/xlink" width="768" zoomAndPan="magnify" viewBox="0 0 576 141.00002" height="768" preserveAspectRatio="xMidYMid meet" version="1.0"><defs><clipPath id="1932a2a938"><path d="M 77.984375 75.957031 L 498.015625 75.957031 L 498.015625 140.007812 L 77.984375 140.007812 Z M 77.984375 75.957031 " clip-rule="nonzero"/></clipPath><clipPath id="8d36693a48"><path d="M 288 75.957031 C 172.011719 75.957031 77.984375 169.984375 77.984375 285.972656 C 77.984375 401.960938 172.011719 495.988281 288 495.988281 C 403.988281 495.988281 498.015625 401.960938 498.015625 285.972656 C 498.015625 169.984375 403.988281 75.957031 288 75.957031 Z M 288 75.957031 " clip-rule="nonzero"/></clipPath><clipPath id="b6a7774a04"><path d="M 0.984375 0.957031 L 421.015625 0.957031 L 421.015625 65.007812 L 0.984375 65.007812 Z M 0.984375 0.957031 " clip-rule="nonzero"/></clipPath><clipPath id="684e814bce"><path d="M 211 0.957031 C 95.011719 0.957031 0.984375 94.984375 0.984375 210.972656 C 0.984375 326.960938 95.011719 420.988281 211 420.988281 C 326.988281 420.988281 421.015625 326.960938 421.015625 210.972656 C 421.015625 94.984375 326.988281 0.957031 211 0.957031 Z M 211 0.957031 " clip-rule="nonzero"/></clipPath><clipPath id="e814983a46"><rect x="0" width="422" y="0" height="66"/></clipPath><clipPath id="0d4e7992a5"><path d="M 86.167969 84.488281 L 490 84.488281 L 490 140.007812 L 86.167969 140.007812 Z M 86.167969 84.488281 " clip-rule="nonzero"/></clipPath><clipPath id="9eb847e711"><path d="M 288 84.488281 C 176.53125 84.488281 86.167969 174.695312 86.167969 285.972656 C 86.167969 397.246094 176.53125 487.453125 288 487.453125 C 399.46875 487.453125 489.832031 397.246094 489.832031 285.972656 C 489.832031 174.695312 399.46875 84.488281 288 84.488281 Z M 288 84.488281 " clip-rule="nonzero"/></clipPath><clipPath id="c42b29c4d6"><path d="M 0.167969 0.488281 L 403.847656 0.488281 L 403.847656 56.007812 L 0.167969 56.007812 Z M 0.167969 0.488281 " clip-rule="nonzero"/></clipPath><clipPath id="e2be414e18"><path d="M 202 0.488281 C 90.53125 0.488281 0.167969 90.695312 0.167969 201.972656 C 0.167969 313.246094 90.53125 403.453125 202 403.453125 C 313.46875 403.453125 403.832031 313.246094 403.832031 201.972656 C 403.832031 90.695312 313.46875 0.488281 202 0.488281 Z M 202 0.488281 " clip-rule="nonzero"/></clipPath><clipPath id="f5b9f74ba0"><rect x="0" width="404" y="0" height="57"/></clipPath><clipPath id="2c457366d2"><path d="M 34 60 L 542 60 L 542 140.007812 L 34 140.007812 Z M 34 60 " clip-rule="nonzero"/></clipPath></defs><g clip-path="url(#1932a2a938)"><g clip-path="url(#8d36693a48)"><g transform="matrix(1, 0, 0, 1, 77, 75)"><g clip-path="url(#e814983a46)"><g clip-path="url(#b6a7774a04)"><g clip-path="url(#684e814bce)"><path fill="#000000" d="M 0.984375 0.957031 L 421.015625 0.957031 L 421.015625 420.988281 L 0.984375 420.988281 Z M 0.984375 0.957031 " fill-opacity="1" fill-rule="nonzero"/></g></g></g></g></g></g><g clip-path="url(#0d4e7992a5)"><g clip-path="url(#9eb847e711)"><g transform="matrix(1, 0, 0, 1, 86, 84)"><g clip-path="url(#f5b9f74ba0)"><g clip-path="url(#c42b29c4d6)"><g clip-path="url(#e2be414e18)"><path fill="#ffffff" d="M 0.167969 0.488281 L 403.132812 0.488281 L 403.132812 403.453125 L 0.167969 403.453125 Z M 0.167969 0.488281 " fill-opacity="1" fill-rule="nonzero"/></g></g></g></g></g></g><g clip-path="url(#2c457366d2)"><path stroke-linecap="round" transform="matrix(0.564014, -0.486306, 0.486306, 0.564014, 79.076352, 460.207384)" fill="none" stroke-linejoin="miter" d="M 6.002183 5.998771 L 724.496165 6.002141 " stroke="#000000" stroke-width="12" stroke-opacity="1" stroke-miterlimit="4"/></g></svg>